<?xml version="1.0" encoding="UTF-8" standalone="no"?>
<svg width="1125px" height="411px" viewBox="0 0 1125 411" version="1.1" xmlns="http://www.w3.org/2000/svg" xmlns:xlink="http://www.w3.org/1999/xlink" xmlns:sketch="http://www.bohemiancoding.com/sketch/ns">
    <!-- Generator: Sketch 3.3.3 (12072) - http://www.bohemiancoding.com/sketch -->
    <title>carlos-borges-logo</title>
    <desc>Created with Sketch.</desc>
    <defs></defs>
    <g id="Page-1" stroke="none" stroke-width="1" fill="none" fill-rule="evenodd" sketch:type="MSPage">
        <g id="Full-Logo" sketch:type="MSLayerGroup" transform="translate(83.000000, 30.000000)">
            <polygon id="Polygon-1" fill="#D8D8D8" sketch:type="MSShapeGroup" points="65.5 219 122.224664 251.75 122.224664 317.25 65.5 350 8.77533605 317.25 8.77533605 251.75 "></polygon>
            <polygon id="Polygon-1-Copy" fill="#D8D8D8" sketch:type="MSShapeGroup" points="196.5 219 253.224664 251.75 253.224664 317.25 196.5 350 139.775336 317.25 139.775336 251.75 "></polygon>
            <polygon id="Polygon-1-Copy-2" fill="#D8D8D8" sketch:type="MSShapeGroup" points="327.5 219 384.224664 251.75 384.224664 317.25 327.5 350 270.775336 317.25 270.775336 251.75 "></polygon>
            <polygon id="Polygon-1-Copy-4" fill="#D8D8D8" sketch:type="MSShapeGroup" points="193.5 0 250.224664 32.75 250.224664 98.25 193.5 131 136.775336 98.25 136.775336 32.75 "></polygon>
            <text id="carlos-borges" sketch:type="MSTextLayer" font-family="Proxima Nova" font-size="96" font-weight="260" fill="#4A4A4A">
                <tspan x="393" y="197">carlos borges</tspan>
            </text>
            <polygon id="Polygon-1-Copy-3" fill="#D8D8D8" sketch:type="MSShapeGroup" points="261.5 108 318.224664 140.75 318.224664 206.25 261.5 239 204.775336 206.25 204.775336 140.75 "></polygon>
        </g>
    </g>
</svg>