<?xml version="1.0" encoding="UTF-8" standalone="no"?>
<svg width="639px" height="547px" viewBox="0 0 639 547" version="1.1" xmlns="http://www.w3.org/2000/svg" xmlns:xlink="http://www.w3.org/1999/xlink" xmlns:sketch="http://www.bohemiancoding.com/sketch/ns">
    <!-- Generator: Sketch 3.3.3 (12072) - http://www.bohemiancoding.com/sketch -->
    <title>carlos-borges-escrita-baixo-logo</title>
    <desc>Created with Sketch.</desc>
    <defs></defs>
    <g id="Page-1" stroke="none" stroke-width="1" fill="none" fill-rule="evenodd" sketch:type="MSPage">
        <g id="carlos-borges-com-escrita-em-baixo" sketch:type="MSArtboardGroup" transform="translate(-327.000000, -179.000000)">
            <g id="logo-text" sketch:type="MSLayerGroup" transform="translate(373.000000, 593.000000)" fill="#4A4A4A">
                <path d="M22.648,66.152 C30.712,66.152 35.32,62.984 39.064,58.184 L35.608,55.112 C32.248,59.72 28.024,61.64 22.936,61.64 C12.088,61.64 5.464,52.904 5.464,41.768 C5.464,30.632 12.088,21.992 22.936,21.992 C28.024,21.992 32.248,23.816 35.608,28.424 L39.064,25.352 C35.32,20.648 30.712,17.48 22.648,17.48 C9.016,17.48 0.184,28.232 0.184,41.768 C0.184,55.304 9.016,66.152 22.648,66.152 L22.648,66.152 Z M84.664,65 L84.664,32.36 C84.664,21.992 77.176,17.48 67.768,17.48 C60.088,17.48 54.712,20.072 49.912,25.256 L52.696,28.712 C56.92,23.912 61.432,21.896 67.288,21.896 C74.104,21.896 79.672,25.64 79.672,32.552 L79.672,41.96 C75.64,37.448 70.36,35.336 63.928,35.336 C55.864,35.336 47.704,40.616 47.704,50.696 C47.704,60.68 55.96,66.152 63.928,66.152 C70.36,66.152 75.544,64.04 79.672,59.528 L79.672,65 L84.664,65 Z M65.656,62.216 C58.072,62.216 52.984,57.32 52.984,50.792 C52.984,44.168 58.072,39.272 65.656,39.272 C71.224,39.272 76.408,41.384 79.672,45.704 L79.672,55.88 C76.408,60.104 71.224,62.216 65.656,62.216 L65.656,62.216 Z M105.208,65 L105.208,31.208 C107.32,27.176 113.656,22.952 118.36,22.952 C119.32,22.952 119.992,22.952 120.856,23.144 L120.856,17.672 C114.424,17.672 109.144,21.416 105.208,26.6 L105.208,18.632 L100.216,18.632 L100.216,65 L105.208,65 Z M135.64,65 L135.64,0.968 L130.648,0.968 L130.648,65 L135.64,65 Z M170.776,66.152 C184.504,66.152 193.144,55.304 193.144,41.768 C193.144,28.232 184.504,17.48 170.776,17.48 C157.24,17.48 148.6,28.232 148.6,41.768 C148.6,55.304 157.24,66.152 170.776,66.152 L170.776,66.152 Z M170.776,61.64 C160.024,61.64 153.88,52.136 153.88,41.768 C153.88,31.496 160.024,21.992 170.776,21.992 C181.72,21.992 187.768,31.496 187.768,41.768 C187.768,52.136 181.72,61.64 170.776,61.64 L170.776,61.64 Z M219.832,66.152 C231.448,66.152 237.208,60.008 237.208,52.52 C237.208,34.664 208.024,41.768 208.024,30.152 C208.024,25.352 212.344,21.704 219.544,21.704 C225.688,21.704 230.68,24.2 233.368,27.848 L236.152,24.296 C232.792,20.552 227.512,17.48 219.544,17.48 C209.08,17.48 203.032,23.24 203.032,30.344 C203.032,47.048 232.312,39.848 232.312,52.52 C232.312,57.896 227.704,61.928 219.928,61.928 C213.4,61.928 207.928,58.856 204.952,55.112 L201.976,58.76 C206.584,63.944 212.344,66.152 219.832,66.152 L219.832,66.152 Z M279.928,53.384 L279.928,30.44 C282.616,26.024 288.76,21.992 295.192,21.992 C305.56,21.992 311.416,30.632 311.416,41.864 C311.416,53.096 305.56,61.64 295.192,61.64 C288.76,61.64 282.616,57.8 279.928,53.384 L279.928,53.384 Z M279.928,65 L279.928,57.608 C283.192,62.408 289.144,66.152 296.056,66.152 C308.344,66.152 316.792,56.744 316.792,41.864 C316.792,27.176 308.44,17.48 296.056,17.48 C289.528,17.48 283.672,20.84 279.928,26.12 L279.928,0.968 L274.936,0.968 L274.936,65 L279.928,65 Z M349.336,66.152 C363.064,66.152 371.704,55.304 371.704,41.768 C371.704,28.232 363.064,17.48 349.336,17.48 C335.8,17.48 327.16,28.232 327.16,41.768 C327.16,55.304 335.8,66.152 349.336,66.152 L349.336,66.152 Z M349.336,61.64 C338.584,61.64 332.44,52.136 332.44,41.768 C332.44,31.496 338.584,21.992 349.336,21.992 C360.28,21.992 366.328,31.496 366.328,41.768 C366.328,52.136 360.28,61.64 349.336,61.64 L349.336,61.64 Z M389.56,65 L389.56,31.208 C391.672,27.176 398.008,22.952 402.712,22.952 C403.672,22.952 404.344,22.952 405.208,23.144 L405.208,17.672 C398.776,17.672 393.496,21.416 389.56,26.6 L389.56,18.632 L384.568,18.632 L384.568,65 L389.56,65 Z M433.432,83.816 C444.664,83.816 454.264,78.728 454.264,64.616 L454.264,18.632 L449.176,18.632 L449.176,26.12 C445.432,20.84 439.672,17.48 433.048,17.48 C420.76,17.48 412.408,27.08 412.408,41.768 C412.408,56.648 420.76,65.96 433.048,65.96 C439.96,65.96 445.912,62.024 449.176,57.224 L449.176,64.616 C449.176,75.08 441.784,79.304 433.432,79.304 C426.424,79.304 422.008,77.576 417.976,72.776 L415.096,76.808 C420.568,82.376 425.56,83.816 433.432,83.816 L433.432,83.816 Z M433.912,61.448 C423.64,61.448 417.688,53 417.688,41.768 C417.688,30.536 423.64,21.992 433.912,21.992 C440.344,21.992 446.488,25.928 449.176,30.44 L449.176,53 C446.488,57.512 440.344,61.448 433.912,61.448 L433.912,61.448 Z M490.264,66.152 C497.944,66.152 503.8,63.464 508.408,58.664 L505.816,55.4 C501.88,59.624 496.504,61.832 490.648,61.832 C479.704,61.832 472.984,53.48 472.504,43.4 L511.288,43.4 L511.288,42.056 C511.288,28.616 503.512,17.48 489.4,17.48 C476.536,17.48 467.128,28.328 467.128,41.768 C467.128,56.072 476.728,66.152 490.264,66.152 L490.264,66.152 Z M506.2,39.464 L472.504,39.464 C472.888,31.4 478.36,21.8 489.304,21.8 C500.92,21.8 506.104,31.592 506.2,39.464 L506.2,39.464 Z M537.976,66.152 C549.592,66.152 555.352,60.008 555.352,52.52 C555.352,34.664 526.168,41.768 526.168,30.152 C526.168,25.352 530.488,21.704 537.688,21.704 C543.832,21.704 548.824,24.2 551.512,27.848 L554.296,24.296 C550.936,20.552 545.656,17.48 537.688,17.48 C527.224,17.48 521.176,23.24 521.176,30.344 C521.176,47.048 550.456,39.848 550.456,52.52 C550.456,57.896 545.848,61.928 538.072,61.928 C531.544,61.928 526.072,58.856 523.096,55.112 L520.12,58.76 C524.728,63.944 530.488,66.152 537.976,66.152 L537.976,66.152 Z" id="carlos-borges" sketch:type="MSShapeGroup"></path>
            </g>
            <g id="carlos-borges-logo-copy" sketch:type="MSLayerGroup" transform="translate(327.000000, 189.000000)" fill="#CCCCCC">
                <polygon id="2,2" sketch:type="MSShapeGroup" points="455 220 511.291651 252.5 511.291651 317.5 455 350 398.708349 317.5 398.708349 252.5 "></polygon>
                <polygon id="2,0" sketch:type="MSShapeGroup" points="195 220 251.291651 252.5 251.291651 317.5 195 350 138.708349 317.5 138.708349 252.5 "></polygon>
                <polygon id="2,1" sketch:type="MSShapeGroup" points="325 220 381.291651 252.5 381.291651 317.5 325 350 268.708349 317.5 268.708349 252.5 "></polygon>
                <polygon id="1,2" sketch:type="MSShapeGroup" points="390 110 446.291651 142.5 446.291651 207.5 390 240 333.708349 207.5 333.708349 142.5 "></polygon>
                <polygon id="0,2" sketch:type="MSShapeGroup" points="325 0 381.291651 32.5 381.291651 97.5 325 130 268.708349 97.5 268.708349 32.5 "></polygon>
            </g>
        </g>
    </g>
</svg>