<?xml version="1.0" encoding="UTF-8" standalone="no"?>
<svg width="1125px" height="411px" viewBox="0 0 1125 411" version="1.1" xmlns="http://www.w3.org/2000/svg" xmlns:xlink="http://www.w3.org/1999/xlink" xmlns:sketch="http://www.bohemiancoding.com/sketch/ns">
    <!-- Generator: Sketch 3.3.3 (12072) - http://www.bohemiancoding.com/sketch -->
    <title>carlos-borges-logo</title>
    <desc>Created with Sketch.</desc>
    <defs></defs>
    <g id="Page-1" stroke="none" stroke-width="1" fill="none" fill-rule="evenodd" sketch:type="MSPage">
        <g id="carlos-borges-com-escrita" sketch:type="MSArtboardGroup" transform="translate(-88.000000, -283.000000)" fill="#4A4A4A">
            <g id="Full-Logo" sketch:type="MSLayerGroup" transform="translate(582.000000, 431.000000)" font-size="96" font-family="Proxima Nova" font-weight="260">
                <text id="carlos-borges" sketch:type="MSTextLayer">
                    <tspan x="0" y="95">carlos borges</tspan>
                </text>
            </g>
            <g id="carlos-borges-logo-copy" sketch:type="MSLayerGroup" transform="translate(33.000000, 313.000000)">
                <polygon id="2,2" sketch:type="MSShapeGroup" points="455 220 511.291651 252.5 511.291651 317.5 455 350 398.708349 317.5 398.708349 252.5 "></polygon>
                <polygon id="2,0" sketch:type="MSShapeGroup" points="195 220 251.291651 252.5 251.291651 317.5 195 350 138.708349 317.5 138.708349 252.5 "></polygon>
                <polygon id="2,1" sketch:type="MSShapeGroup" points="325 220 381.291651 252.5 381.291651 317.5 325 350 268.708349 317.5 268.708349 252.5 "></polygon>
                <polygon id="1,2" sketch:type="MSShapeGroup" points="390 110 446.291651 142.5 446.291651 207.5 390 240 333.708349 207.5 333.708349 142.5 "></polygon>
                <polygon id="0,2" sketch:type="MSShapeGroup" points="325 0 381.291651 32.5 381.291651 97.5 325 130 268.708349 97.5 268.708349 32.5 "></polygon>
            </g>
        </g>
    </g>
</svg>