<?xml version="1.0" encoding="UTF-8" standalone="no"?>
<svg width="639px" height="596px" viewBox="0 0 639 596" version="1.1" xmlns="http://www.w3.org/2000/svg" xmlns:xlink="http://www.w3.org/1999/xlink">
    <!-- Generator: Sketch 3.6.1 (26313) - http://www.bohemiancoding.com/sketch -->
    <title>carlos-borges-escrita-baixo-logo</title>
    <desc>Created with Sketch.</desc>
    <defs></defs>
    <g id="Page-1" stroke="none" stroke-width="1" fill="none" fill-rule="evenodd">
        <g id="carlos-borges-com-escrita-em-baixo" transform="translate(-327.000000, -168.000000)">
            <path d="M481.852,640.312 C480.657327,638.690659 479.10001,637.50667 477.18,636.76 C475.25999,636.01333 473.382676,635.64 471.548,635.64 C469.201322,635.64 467.06801,636.066662 465.148,636.92 C463.22799,637.773338 461.574674,638.946659 460.188,640.44 C458.801326,641.933341 457.73467,643.682657 456.988,645.688 C456.24133,647.693343 455.868,649.869322 455.868,652.216 C455.868,654.690679 456.230663,656.95199 456.956,659 C457.681337,661.04801 458.715993,662.807993 460.06,664.28 C461.404007,665.752007 463.014657,666.893329 464.892,667.704 C466.769343,668.514671 468.881322,668.92 471.228,668.92 C473.660012,668.92 475.814657,668.440005 477.692,667.48 C479.569343,666.519995 481.083994,665.250675 482.236,663.672 L488.7,668.216 C486.694657,670.733346 484.241348,672.685326 481.34,674.072 C478.438652,675.458674 475.046686,676.152 471.164,676.152 C467.622649,676.152 464.369348,675.565339 461.404,674.392 C458.438652,673.218661 455.889344,671.576011 453.756,669.464 C451.622656,667.351989 449.958673,664.834681 448.764,661.912 C447.569327,658.989319 446.972,655.757351 446.972,652.216 C446.972,648.589315 447.601327,645.314681 448.86,642.392 C450.118673,639.469319 451.846656,636.98401 454.044,634.936 C456.241344,632.88799 458.833318,631.309339 461.82,630.2 C464.806682,629.090661 468.049316,628.536 471.548,628.536 C472.998674,628.536 474.513325,628.674665 476.092,628.952 C477.670675,629.229335 479.185326,629.655997 480.636,630.232 C482.086674,630.808003 483.451994,631.522662 484.732,632.376 C486.012006,633.229338 487.099996,634.253327 487.996,635.448 L481.852,640.312 Z M511.228,671.096 L511.036,671.096 C510.267996,672.46134 509.030675,673.581329 507.324,674.456 C505.617325,675.330671 503.676011,675.768 501.5,675.768 C500.26266,675.768 498.972007,675.608002 497.628,675.288 C496.283993,674.967998 495.046672,674.43467 493.916,673.688 C492.785328,672.94133 491.84667,671.960006 491.1,670.744 C490.35333,669.527994 489.98,668.024009 489.98,666.232 C489.98,663.927988 490.63066,662.09334 491.932,660.728 C493.23334,659.36266 494.90799,658.317337 496.956,657.592 C499.00401,656.866663 501.275988,656.386668 503.772,656.152 C506.268012,655.917332 508.710655,655.8 511.1,655.8 L511.1,655.032 C511.1,653.11199 510.406674,651.693338 509.02,650.776 C507.633326,649.858662 505.98001,649.4 504.06,649.4 C502.438659,649.4 500.881341,649.74133 499.388,650.424 C497.894659,651.10667 496.657338,651.938662 495.676,652.92 L491.708,648.248 C493.457342,646.626659 495.473322,645.410671 497.756,644.6 C500.038678,643.789329 502.353322,643.384 504.7,643.384 C507.43068,643.384 509.681324,643.767996 511.452,644.536 C513.222676,645.304004 514.619995,646.30666 515.644,647.544 C516.668005,648.78134 517.382665,650.167992 517.788,651.704 C518.193335,653.240008 518.396,654.775992 518.396,656.312 L518.396,675 L511.228,675 L511.228,671.096 Z M511.1,660.984 L509.372,660.984 C508.13466,660.984 506.83334,661.037333 505.468,661.144 C504.10266,661.250667 502.844006,661.485332 501.692,661.848 C500.539994,662.210668 499.580004,662.722663 498.812,663.384 C498.043996,664.045337 497.66,664.951994 497.66,666.104 C497.66,666.829337 497.819998,667.437331 498.14,667.928 C498.460002,668.418669 498.875997,668.813332 499.388,669.112 C499.900003,669.410668 500.475997,669.623999 501.116,669.752 C501.756003,669.880001 502.395997,669.944 503.036,669.944 C505.681347,669.944 507.68666,669.240007 509.052,667.832 C510.41734,666.423993 511.1,664.504012 511.1,662.072 L511.1,660.984 Z M527.356,644.28 L534.716,644.28 L534.716,649.4 L534.844,649.4 C535.697338,647.607991 536.891992,646.157339 538.428,645.048 C539.964008,643.938661 541.75599,643.384 543.804,643.384 C544.102668,643.384 544.422665,643.394667 544.764,643.416 C545.105335,643.437333 545.403999,643.490666 545.66,643.576 L545.66,650.616 C545.147997,650.487999 544.710668,650.402667 544.348,650.36 C543.985332,650.317333 543.633335,650.296 543.292,650.296 C541.542658,650.296 540.134672,650.615997 539.068,651.256 C538.001328,651.896003 537.169336,652.663996 536.572,653.56 C535.974664,654.456004 535.569334,655.373329 535.356,656.312 C535.142666,657.250671 535.036,657.997331 535.036,658.552 L535.036,675 L527.356,675 L527.356,644.28 Z M550.78,626.616 L558.46,626.616 L558.46,675 L550.78,675 L550.78,626.616 Z M566.012,659.512 C566.012,657.079988 566.449329,654.87201 567.324,652.888 C568.198671,650.90399 569.382659,649.208007 570.876,647.8 C572.369341,646.391993 574.13999,645.304004 576.188,644.536 C578.23601,643.767996 580.411988,643.384 582.716,643.384 C585.020012,643.384 587.19599,643.767996 589.244,644.536 C591.29201,645.304004 593.062659,646.391993 594.556,647.8 C596.049341,649.208007 597.233329,650.90399 598.108,652.888 C598.982671,654.87201 599.42,657.079988 599.42,659.512 C599.42,661.944012 598.982671,664.162657 598.108,666.168 C597.233329,668.173343 596.049341,669.89066 594.556,671.32 C593.062659,672.74934 591.29201,673.869329 589.244,674.68 C587.19599,675.490671 585.020012,675.896 582.716,675.896 C580.411988,675.896 578.23601,675.490671 576.188,674.68 C574.13999,673.869329 572.369341,672.74934 570.876,671.32 C569.382659,669.89066 568.198671,668.173343 567.324,666.168 C566.449329,664.162657 566.012,661.944012 566.012,659.512 L566.012,659.512 Z M573.82,659.512 C573.82,660.706673 574.001332,661.901327 574.364,663.096 C574.726668,664.290673 575.270663,665.357329 575.996,666.296 C576.721337,667.234671 577.638661,668.002664 578.748,668.6 C579.857339,669.197336 581.179992,669.496 582.716,669.496 C584.252008,669.496 585.574661,669.197336 586.684,668.6 C587.793339,668.002664 588.710663,667.234671 589.436,666.296 C590.161337,665.357329 590.705332,664.290673 591.068,663.096 C591.430668,661.901327 591.612,660.706673 591.612,659.512 C591.612,658.317327 591.430668,657.133339 591.068,655.96 C590.705332,654.786661 590.161337,653.730671 589.436,652.792 C588.710663,651.853329 587.793339,651.096003 586.684,650.52 C585.574661,649.943997 584.252008,649.656 582.716,649.656 C581.179992,649.656 579.857339,649.943997 578.748,650.52 C577.638661,651.096003 576.721337,651.853329 575.996,652.792 C575.270663,653.730671 574.726668,654.786661 574.364,655.96 C574.001332,657.133339 573.82,658.317327 573.82,659.512 L573.82,659.512 Z M623.676,652.472 C622.99333,651.575996 622.054673,650.797337 620.86,650.136 C619.665327,649.474663 618.364007,649.144 616.956,649.144 C615.71866,649.144 614.588005,649.399997 613.564,649.912 C612.539995,650.424003 612.028,651.277327 612.028,652.472 C612.028,653.666673 612.593328,654.509331 613.724,655 C614.854672,655.490669 616.507989,655.991997 618.684,656.504 C619.836006,656.760001 620.998661,657.101331 622.172,657.528 C623.345339,657.954669 624.411995,658.519996 625.372,659.224 C626.332005,659.928004 627.110664,660.802661 627.708,661.848 C628.305336,662.893339 628.604,664.162659 628.604,665.656 C628.604,667.533343 628.252004,669.12266 627.548,670.424 C626.843996,671.72534 625.905339,672.781329 624.732,673.592 C623.558661,674.402671 622.193341,674.989332 620.636,675.352 C619.078659,675.714668 617.468008,675.896 615.804,675.896 C613.414655,675.896 611.089345,675.458671 608.828,674.584 C606.566655,673.709329 604.689341,672.461341 603.196,670.84 L608.252,666.104 C609.105338,667.213339 610.21466,668.130663 611.58,668.856 C612.94534,669.581337 614.459992,669.944 616.124,669.944 C616.678669,669.944 617.243997,669.880001 617.82,669.752 C618.396003,669.623999 618.929331,669.421335 619.42,669.144 C619.910669,668.866665 620.305332,668.493336 620.604,668.024 C620.902668,667.554664 621.052,666.97867 621.052,666.296 C621.052,665.015994 620.465339,664.098669 619.292,663.544 C618.118661,662.989331 616.358678,662.434669 614.012,661.88 C612.859994,661.623999 611.740005,661.293335 610.652,660.888 C609.563995,660.482665 608.593338,659.949337 607.74,659.288 C606.886662,658.626663 606.204003,657.805338 605.692,656.824 C605.179997,655.842662 604.924,654.626674 604.924,653.176 C604.924,651.469325 605.275996,649.99734 605.98,648.76 C606.684004,647.52266 607.611994,646.509337 608.764,645.72 C609.916006,644.930663 611.217326,644.344002 612.668,643.96 C614.118674,643.575998 615.611992,643.384 617.148,643.384 C619.366678,643.384 621.531989,643.767996 623.644,644.536 C625.756011,645.304004 627.43066,646.477325 628.668,648.056 L623.676,652.472 Z M651.644,629.688 L669.308,629.688 C671.014675,629.688 672.699992,629.890665 674.364,630.296 C676.028008,630.701335 677.51066,631.362662 678.812,632.28 C680.11334,633.197338 681.169329,634.381326 681.98,635.832 C682.790671,637.282674 683.196,639.03199 683.196,641.08 C683.196,643.640013 682.470674,645.751992 681.02,647.416 C679.569326,649.080008 677.670678,650.274663 675.324,651 L675.324,651.128 C678.182681,651.512002 680.529324,652.621324 682.364,654.456 C684.198676,656.290676 685.116,658.743985 685.116,661.816 C685.116,664.290679 684.625338,666.370658 683.644,668.056 C682.662662,669.741342 681.372008,671.095995 679.772,672.12 C678.171992,673.144005 676.337344,673.879998 674.268,674.328 C672.198656,674.776002 670.097344,675 667.964,675 L651.644,675 L651.644,629.688 Z M659.708,648.12 L666.876,648.12 C669.564013,648.12 671.611993,647.586672 673.02,646.52 C674.428007,645.453328 675.132,643.938676 675.132,641.976 C675.132,639.92799 674.406674,638.477338 672.956,637.624 C671.505326,636.770662 669.244015,636.344 666.172,636.344 L659.708,636.344 L659.708,648.12 Z M659.708,668.216 L666.94,668.216 C667.964005,668.216 669.073327,668.141334 670.268,667.992 C671.462673,667.842666 672.561328,667.533336 673.564,667.064 C674.566672,666.594664 675.398663,665.912004 676.06,665.016 C676.721337,664.119996 677.052,662.925341 677.052,661.432 C677.052,659.042655 676.241341,657.378671 674.62,656.44 C672.998659,655.501329 670.54535,655.032 667.26,655.032 L659.708,655.032 L659.708,668.216 Z M690.876,659.512 C690.876,657.079988 691.313329,654.87201 692.188,652.888 C693.062671,650.90399 694.246659,649.208007 695.74,647.8 C697.233341,646.391993 699.00399,645.304004 701.052,644.536 C703.10001,643.767996 705.275988,643.384 707.58,643.384 C709.884012,643.384 712.05999,643.767996 714.108,644.536 C716.15601,645.304004 717.926659,646.391993 719.42,647.8 C720.913341,649.208007 722.097329,650.90399 722.972,652.888 C723.846671,654.87201 724.284,657.079988 724.284,659.512 C724.284,661.944012 723.846671,664.162657 722.972,666.168 C722.097329,668.173343 720.913341,669.89066 719.42,671.32 C717.926659,672.74934 716.15601,673.869329 714.108,674.68 C712.05999,675.490671 709.884012,675.896 707.58,675.896 C705.275988,675.896 703.10001,675.490671 701.052,674.68 C699.00399,673.869329 697.233341,672.74934 695.74,671.32 C694.246659,669.89066 693.062671,668.173343 692.188,666.168 C691.313329,664.162657 690.876,661.944012 690.876,659.512 L690.876,659.512 Z M698.684,659.512 C698.684,660.706673 698.865332,661.901327 699.228,663.096 C699.590668,664.290673 700.134663,665.357329 700.86,666.296 C701.585337,667.234671 702.502661,668.002664 703.612,668.6 C704.721339,669.197336 706.043992,669.496 707.58,669.496 C709.116008,669.496 710.438661,669.197336 711.548,668.6 C712.657339,668.002664 713.574663,667.234671 714.3,666.296 C715.025337,665.357329 715.569332,664.290673 715.932,663.096 C716.294668,661.901327 716.476,660.706673 716.476,659.512 C716.476,658.317327 716.294668,657.133339 715.932,655.96 C715.569332,654.786661 715.025337,653.730671 714.3,652.792 C713.574663,651.853329 712.657339,651.096003 711.548,650.52 C710.438661,649.943997 709.116008,649.656 707.58,649.656 C706.043992,649.656 704.721339,649.943997 703.612,650.52 C702.502661,651.096003 701.585337,651.853329 700.86,652.792 C700.134663,653.730671 699.590668,654.786661 699.228,655.96 C698.865332,657.133339 698.684,658.317327 698.684,659.512 L698.684,659.512 Z M731.708,644.28 L739.068,644.28 L739.068,649.4 L739.196,649.4 C740.049338,647.607991 741.243992,646.157339 742.78,645.048 C744.316008,643.938661 746.10799,643.384 748.156,643.384 C748.454668,643.384 748.774665,643.394667 749.116,643.416 C749.457335,643.437333 749.755999,643.490666 750.012,643.576 L750.012,650.616 C749.499997,650.487999 749.062668,650.402667 748.7,650.36 C748.337332,650.317333 747.985335,650.296 747.644,650.296 C745.894658,650.296 744.486672,650.615997 743.42,651.256 C742.353328,651.896003 741.521336,652.663996 740.924,653.56 C740.326664,654.456004 739.921334,655.373329 739.708,656.312 C739.494666,657.250671 739.388,657.997331 739.388,658.552 L739.388,675 L731.708,675 L731.708,644.28 Z M785.084,644.28 L785.084,672.248 C785.084,675.021347 784.74267,677.527989 784.06,679.768 C783.37733,682.008011 782.32134,683.906659 780.892,685.464 C779.46266,687.021341 777.660011,688.226662 775.484,689.08 C773.307989,689.933338 770.726682,690.36 767.74,690.36 C766.50266,690.36 765.190674,690.253334 763.804,690.04 C762.417326,689.826666 761.052007,689.506669 759.708,689.08 C758.363993,688.653331 757.07334,688.120003 755.836,687.48 C754.59866,686.839997 753.489338,686.114671 752.508,685.304 L756.924,679.352 C758.417341,680.760007 760.102657,681.83733 761.98,682.584 C763.857343,683.33067 765.75599,683.704 767.676,683.704 C769.510676,683.704 771.057327,683.437336 772.316,682.904 C773.574673,682.370664 774.57733,681.634671 775.324,680.696 C776.07067,679.757329 776.603998,678.648006 776.924,677.368 C777.244002,676.087994 777.404,674.680008 777.404,673.144 L777.404,670.904 L777.276,670.904 C776.166661,672.397341 774.748009,673.538663 773.02,674.328 C771.291991,675.117337 769.361344,675.512 767.228,675.512 C764.923988,675.512 762.833343,675.085338 760.956,674.232 C759.078657,673.378662 757.48934,672.226674 756.188,670.776 C754.88666,669.325326 753.873337,667.629343 753.148,665.688 C752.422663,663.746657 752.06,661.688011 752.06,659.512 C752.06,657.293322 752.411996,655.202676 753.116,653.24 C753.820004,651.277324 754.82266,649.570674 756.124,648.12 C757.42534,646.669326 759.003991,645.517338 760.86,644.664 C762.716009,643.810662 764.795988,643.384 767.1,643.384 C769.276011,643.384 771.302657,643.831996 773.18,644.728 C775.057343,645.624004 776.550661,647.010657 777.66,648.888 L777.788,648.888 L777.788,644.28 L785.084,644.28 Z M768.7,649.656 C767.291993,649.656 766.044005,649.911997 764.956,650.424 C763.867995,650.936003 762.95067,651.629329 762.204,652.504 C761.45733,653.378671 760.881335,654.413327 760.476,655.608 C760.070665,656.802673 759.868,658.08266 759.868,659.448 C759.868,660.68534 760.070665,661.879994 760.476,663.032 C760.881335,664.184006 761.45733,665.218662 762.204,666.136 C762.95067,667.053338 763.867995,667.789331 764.956,668.344 C766.044005,668.898669 767.27066,669.176 768.636,669.176 C770.044007,669.176 771.313328,668.909336 772.444,668.376 C773.574672,667.842664 774.534663,667.128004 775.324,666.232 C776.113337,665.335996 776.721331,664.301339 777.148,663.128 C777.574669,661.954661 777.788,660.728006 777.788,659.448 C777.788,658.125327 777.574669,656.866673 777.148,655.672 C776.721331,654.477327 776.113337,653.432004 775.324,652.536 C774.534663,651.639996 773.585339,650.936003 772.476,650.424 C771.366661,649.911997 770.108007,649.656 768.7,649.656 L768.7,649.656 Z M815.932,656.568 C815.932,655.586662 815.793335,654.648004 815.516,653.752 C815.238665,652.855996 814.801336,652.06667 814.204,651.384 C813.606664,650.70133 812.849338,650.157335 811.932,649.752 C811.014662,649.346665 809.93734,649.144 808.7,649.144 C806.395988,649.144 804.444008,649.837326 802.844,651.224 C801.243992,652.610674 800.358668,654.391989 800.188,656.568 L815.932,656.568 Z M823.612,660.024 C823.612,660.365335 823.612,660.706665 823.612,661.048 C823.612,661.389335 823.590667,661.730665 823.548,662.072 L800.188,662.072 C800.273334,663.181339 800.561331,664.194662 801.052,665.112 C801.542669,666.029338 802.193329,666.818663 803.004,667.48 C803.814671,668.141337 804.731995,668.663998 805.756,669.048 C806.780005,669.432002 807.846661,669.624 808.956,669.624 C810.87601,669.624 812.497327,669.272004 813.82,668.568 C815.142673,667.863996 816.230662,666.89334 817.084,665.656 L822.204,669.752 C819.174652,673.84802 814.780029,675.896 809.02,675.896 C806.630655,675.896 804.433343,675.52267 802.428,674.776 C800.422657,674.02933 798.684007,672.97334 797.212,671.608 C795.739993,670.24266 794.588004,668.56801 793.756,666.584 C792.923996,664.59999 792.508,662.349346 792.508,659.832 C792.508,657.357321 792.923996,655.106677 793.756,653.08 C794.588004,651.053323 795.729326,649.32534 797.18,647.896 C798.630674,646.46666 800.34799,645.357337 802.332,644.568 C804.31601,643.778663 806.459988,643.384 808.764,643.384 C810.897344,643.384 812.870658,643.735996 814.684,644.44 C816.497342,645.144004 818.065327,646.189326 819.388,647.576 C820.710673,648.962674 821.74533,650.690656 822.492,652.76 C823.23867,654.829344 823.612,657.250653 823.612,660.024 L823.612,660.024 Z M847.868,652.472 C847.18533,651.575996 846.246673,650.797337 845.052,650.136 C843.857327,649.474663 842.556007,649.144 841.148,649.144 C839.91066,649.144 838.780005,649.399997 837.756,649.912 C836.731995,650.424003 836.22,651.277327 836.22,652.472 C836.22,653.666673 836.785328,654.509331 837.916,655 C839.046672,655.490669 840.699989,655.991997 842.876,656.504 C844.028006,656.760001 845.190661,657.101331 846.364,657.528 C847.537339,657.954669 848.603995,658.519996 849.564,659.224 C850.524005,659.928004 851.302664,660.802661 851.9,661.848 C852.497336,662.893339 852.796,664.162659 852.796,665.656 C852.796,667.533343 852.444004,669.12266 851.74,670.424 C851.035996,671.72534 850.097339,672.781329 848.924,673.592 C847.750661,674.402671 846.385341,674.989332 844.828,675.352 C843.270659,675.714668 841.660008,675.896 839.996,675.896 C837.606655,675.896 835.281345,675.458671 833.02,674.584 C830.758655,673.709329 828.881341,672.461341 827.388,670.84 L832.444,666.104 C833.297338,667.213339 834.40666,668.130663 835.772,668.856 C837.13734,669.581337 838.651992,669.944 840.316,669.944 C840.870669,669.944 841.435997,669.880001 842.012,669.752 C842.588003,669.623999 843.121331,669.421335 843.612,669.144 C844.102669,668.866665 844.497332,668.493336 844.796,668.024 C845.094668,667.554664 845.244,666.97867 845.244,666.296 C845.244,665.015994 844.657339,664.098669 843.484,663.544 C842.310661,662.989331 840.550678,662.434669 838.204,661.88 C837.051994,661.623999 835.932005,661.293335 834.844,660.888 C833.755995,660.482665 832.785338,659.949337 831.932,659.288 C831.078662,658.626663 830.396003,657.805338 829.884,656.824 C829.371997,655.842662 829.116,654.626674 829.116,653.176 C829.116,651.469325 829.467996,649.99734 830.172,648.76 C830.876004,647.52266 831.803994,646.509337 832.956,645.72 C834.108006,644.930663 835.409326,644.344002 836.86,643.96 C838.310674,643.575998 839.803992,643.384 841.34,643.384 C843.558678,643.384 845.723989,643.767996 847.836,644.536 C849.948011,645.304004 851.62266,646.477325 852.86,648.056 L847.868,652.472 Z M383.196,741.248 L383.292,741.248 L391.788,712.016 L395.916,712.016 L404.412,741.248 L404.508,741.248 L412.812,712.016 L416.46,712.016 L406.428,746 L402.396,746 L393.852,716.816 L393.756,716.816 L385.212,746 L381.18,746 L371.148,712.016 L374.796,712.016 L383.196,741.248 Z M436.86,733.04 C436.764,730.927989 436.084006,729.176007 434.82,727.784 C433.555994,726.391993 431.756012,725.696 429.42,725.696 C428.331995,725.696 427.324005,725.895998 426.396,726.296 C425.467995,726.696002 424.652004,727.239997 423.948,727.928 C423.243996,728.616003 422.684002,729.399996 422.268,730.28 C421.851998,731.160004 421.612,732.079995 421.548,733.04 L436.86,733.04 Z M440.172,734.096 L440.172,734.816 C440.172,735.072001 440.156,735.343999 440.124,735.632 L421.5,735.632 C421.532,736.752006 421.755998,737.807995 422.172,738.8 C422.588002,739.792005 423.163996,740.655996 423.9,741.392 C424.636004,742.128004 425.499995,742.711998 426.492,743.144 C427.484005,743.576002 428.555994,743.792 429.708,743.792 C431.404008,743.792 432.867994,743.400004 434.1,742.616 C435.332006,741.831996 436.267997,740.928005 436.908,739.904 L439.356,741.824 C438.011993,743.520008 436.532008,744.735996 434.916,745.472 C433.299992,746.208004 431.564009,746.576 429.708,746.576 C428.043992,746.576 426.500007,746.280003 425.076,745.688 C423.651993,745.095997 422.428005,744.272005 421.404,743.216 C420.379995,742.159995 419.572003,740.912007 418.98,739.472 C418.387997,738.031993 418.092,736.464008 418.092,734.768 C418.092,733.071992 418.379997,731.504007 418.956,730.064 C419.532003,728.623993 420.331995,727.376005 421.356,726.32 C422.380005,725.263995 423.579993,724.440003 424.956,723.848 C426.332007,723.255997 427.819992,722.96 429.42,722.96 C431.180009,722.96 432.731993,723.255997 434.076,723.848 C435.420007,724.440003 436.539996,725.239995 437.436,726.248 C438.332004,727.256005 439.011998,728.431993 439.476,729.776 C439.940002,731.120007 440.172,732.559992 440.172,734.096 L440.172,734.096 Z M450.54,742.208 L450.54,746 L447.276,746 L447.276,709.712 L450.54,709.712 L450.54,727.424 L450.636,727.424 C451.596005,725.951993 452.843992,724.840004 454.38,724.088 C455.916008,723.335996 457.499992,722.96 459.132,722.96 C460.892009,722.96 462.483993,723.263997 463.908,723.872 C465.332007,724.480003 466.547995,725.311995 467.556,726.368 C468.564005,727.424005 469.347997,728.671993 469.908,730.112 C470.468003,731.552007 470.748,733.103992 470.748,734.768 C470.748,736.432008 470.468003,737.983993 469.908,739.424 C469.347997,740.864007 468.564005,742.111995 467.556,743.168 C466.547995,744.224005 465.332007,745.055997 463.908,745.664 C462.483993,746.272003 460.892009,746.576 459.132,746.576 C457.499992,746.576 455.916008,746.208004 454.38,745.472 C452.843992,744.735996 451.596005,743.648007 450.636,742.208 L450.54,742.208 Z M467.292,734.768 C467.292,733.519994 467.100002,732.344006 466.716,731.24 C466.331998,730.135994 465.780004,729.176004 465.06,728.36 C464.339996,727.543996 463.452005,726.896002 462.396,726.416 C461.339995,725.935998 460.140007,725.696 458.796,725.696 C457.547994,725.696 456.396005,725.927998 455.34,726.392 C454.283995,726.856002 453.372004,727.495996 452.604,728.312 C451.835996,729.128004 451.236002,730.087994 450.804,731.192 C450.371998,732.296006 450.156,733.487994 450.156,734.768 C450.156,736.048006 450.371998,737.239994 450.804,738.344 C451.236002,739.448006 451.835996,740.399996 452.604,741.2 C453.372004,742.000004 454.283995,742.631998 455.34,743.096 C456.396005,743.560002 457.547994,743.792 458.796,743.792 C460.140007,743.792 461.339995,743.560002 462.396,743.096 C463.452005,742.631998 464.339996,741.992004 465.06,741.176 C465.780004,740.359996 466.331998,739.400006 466.716,738.296 C467.100002,737.191994 467.292,736.016006 467.292,734.768 L467.292,734.768 Z M510.828,738.128 L518.46,746 L513.66,746 L508.86,740.96 C507.451993,742.88001 505.932008,744.295995 504.3,745.208 C502.667992,746.120005 500.700012,746.576 498.396,746.576 C496.955993,746.576 495.588006,746.368002 494.292,745.952 C492.995994,745.535998 491.868005,744.936004 490.908,744.152 C489.947995,743.367996 489.188003,742.392006 488.628,741.224 C488.067997,740.055994 487.788,738.704008 487.788,737.168 C487.788,735.887994 487.987998,734.736005 488.388,733.712 C488.788002,732.687995 489.339996,731.768004 490.044,730.952 C490.748004,730.135996 491.579995,729.408003 492.54,728.768 C493.500005,728.127997 494.539994,727.568002 495.66,727.088 C495.147997,726.575997 494.644002,726.016003 494.148,725.408 C493.651998,724.799997 493.212002,724.168003 492.828,723.512 C492.443998,722.855997 492.132001,722.160004 491.892,721.424 C491.651999,720.687996 491.532,719.936004 491.532,719.168 C491.532,717.887994 491.755998,716.752005 492.204,715.76 C492.652002,714.767995 493.259996,713.928003 494.028,713.24 C494.796004,712.551997 495.691995,712.032002 496.716,711.68 C497.740005,711.327998 498.827994,711.152 499.98,711.152 C501.100006,711.152 502.155995,711.319998 503.148,711.656 C504.140005,711.992002 505.011996,712.487997 505.764,713.144 C506.516004,713.800003 507.107998,714.599995 507.54,715.544 C507.972002,716.488005 508.188,717.567994 508.188,718.784 C508.188,719.904006 507.972002,720.911996 507.54,721.808 C507.107998,722.704004 506.532004,723.511996 505.812,724.232 C505.091996,724.952004 504.276005,725.591997 503.364,726.152 C502.451995,726.712003 501.516005,727.231998 500.556,727.712 L508.476,735.872 L513.18,727.616 L517.068,727.616 L510.828,738.128 Z M504.828,718.784 C504.828,717.375993 504.372005,716.224004 503.46,715.328 C502.547995,714.431996 501.404007,713.984 500.028,713.984 C498.523992,713.984 497.292005,714.455995 496.332,715.4 C495.371995,716.344005 494.892,717.615992 494.892,719.216 C494.892,719.824003 495.019999,720.455997 495.276,721.112 C495.532001,721.768003 495.851998,722.383997 496.236,722.96 C496.620002,723.536003 497.027998,724.063998 497.46,724.544 C497.892002,725.024002 498.267998,725.391999 498.588,725.648 C499.356004,725.295998 500.107996,724.904002 500.844,724.472 C501.580004,724.039998 502.243997,723.552003 502.836,723.008 C503.428003,722.463997 503.907998,721.840004 504.276,721.136 C504.644002,720.431996 504.828,719.648004 504.828,718.784 L504.828,718.784 Z M497.58,729.296 C495.53199,730.224005 493.980005,731.319994 492.924,732.584 C491.867995,733.848006 491.34,735.391991 491.34,737.216 C491.34,738.176005 491.523998,739.055996 491.892,739.856 C492.260002,740.656004 492.771997,741.335997 493.428,741.896 C494.084003,742.456003 494.843996,742.895998 495.708,743.216 C496.572004,743.536002 497.483995,743.696 498.444,743.696 C500.300009,743.696 501.843994,743.280004 503.076,742.448 C504.308006,741.615996 505.467995,740.368008 506.556,738.704 L497.58,729.296 Z M552.54,740.144 L552.588,740.144 L563.964,712.016 L569.244,712.016 L569.244,746 L565.788,746 L565.788,716.48 L565.692,716.48 L553.404,746 L551.58,746 L539.292,716.48 L539.196,716.48 L539.196,746 L535.74,746 L535.74,712.016 L541.02,712.016 L552.54,740.144 Z M600.396,734.768 C600.396,736.464008 600.100003,738.031993 599.508,739.472 C598.915997,740.912007 598.092005,742.159995 597.036,743.216 C595.979995,744.272005 594.716007,745.095997 593.244,745.688 C591.771993,746.280003 590.156009,746.576 588.396,746.576 C586.667991,746.576 585.068007,746.280003 583.596,745.688 C582.123993,745.095997 580.860005,744.272005 579.804,743.216 C578.747995,742.159995 577.924003,740.912007 577.332,739.472 C576.739997,738.031993 576.444,736.464008 576.444,734.768 C576.444,733.071992 576.739997,731.504007 577.332,730.064 C577.924003,728.623993 578.747995,727.376005 579.804,726.32 C580.860005,725.263995 582.123993,724.440003 583.596,723.848 C585.068007,723.255997 586.667991,722.96 588.396,722.96 C590.156009,722.96 591.771993,723.255997 593.244,723.848 C594.716007,724.440003 595.979995,725.263995 597.036,726.32 C598.092005,727.376005 598.915997,728.623993 599.508,730.064 C600.100003,731.504007 600.396,733.071992 600.396,734.768 L600.396,734.768 Z M596.94,734.768 C596.94,733.519994 596.740002,732.344006 596.34,731.24 C595.939998,730.135994 595.372004,729.176004 594.636,728.36 C593.899996,727.543996 593.004005,726.896002 591.948,726.416 C590.891995,725.935998 589.708007,725.696 588.396,725.696 C587.083993,725.696 585.908005,725.935998 584.868,726.416 C583.827995,726.896002 582.940004,727.543996 582.204,728.36 C581.467996,729.176004 580.900002,730.135994 580.5,731.24 C580.099998,732.344006 579.9,733.519994 579.9,734.768 C579.9,736.016006 580.099998,737.191994 580.5,738.296 C580.900002,739.400006 581.467996,740.359996 582.204,741.176 C582.940004,741.992004 583.827995,742.631998 584.868,743.096 C585.908005,743.560002 587.083993,743.792 588.396,743.792 C589.708007,743.792 590.891995,743.560002 591.948,743.096 C593.004005,742.631998 593.899996,741.992004 594.636,741.176 C595.372004,740.359996 595.939998,739.400006 596.34,738.296 C596.740002,737.191994 596.94,736.016006 596.94,734.768 L596.94,734.768 Z M610.764,742.208 L610.764,746 L607.5,746 L607.5,709.712 L610.764,709.712 L610.764,727.424 L610.86,727.424 C611.820005,725.951993 613.067992,724.840004 614.604,724.088 C616.140008,723.335996 617.723992,722.96 619.356,722.96 C621.116009,722.96 622.707993,723.263997 624.132,723.872 C625.556007,724.480003 626.771995,725.311995 627.78,726.368 C628.788005,727.424005 629.571997,728.671993 630.132,730.112 C630.692003,731.552007 630.972,733.103992 630.972,734.768 C630.972,736.432008 630.692003,737.983993 630.132,739.424 C629.571997,740.864007 628.788005,742.111995 627.78,743.168 C626.771995,744.224005 625.556007,745.055997 624.132,745.664 C622.707993,746.272003 621.116009,746.576 619.356,746.576 C617.723992,746.576 616.140008,746.208004 614.604,745.472 C613.067992,744.735996 611.820005,743.648007 610.86,742.208 L610.764,742.208 Z M627.516,734.768 C627.516,733.519994 627.324002,732.344006 626.94,731.24 C626.555998,730.135994 626.004004,729.176004 625.284,728.36 C624.563996,727.543996 623.676005,726.896002 622.62,726.416 C621.563995,725.935998 620.364007,725.696 619.02,725.696 C617.771994,725.696 616.620005,725.927998 615.564,726.392 C614.507995,726.856002 613.596004,727.495996 612.828,728.312 C612.059996,729.128004 611.460002,730.087994 611.028,731.192 C610.595998,732.296006 610.38,733.487994 610.38,734.768 C610.38,736.048006 610.595998,737.239994 611.028,738.344 C611.460002,739.448006 612.059996,740.399996 612.828,741.2 C613.596004,742.000004 614.507995,742.631998 615.564,743.096 C616.620005,743.560002 617.771994,743.792 619.02,743.792 C620.364007,743.792 621.563995,743.560002 622.62,743.096 C623.676005,742.631998 624.563996,741.992004 625.284,741.176 C626.004004,740.359996 626.555998,739.400006 626.94,738.296 C627.324002,737.191994 627.516,736.016006 627.516,734.768 L627.516,734.768 Z M641.292,746 L638.028,746 L638.028,723.536 L641.292,723.536 L641.292,746 Z M641.964,714.896 C641.964,715.568003 641.724002,716.119998 641.244,716.552 C640.763998,716.984002 640.236003,717.2 639.66,717.2 C639.083997,717.2 638.556002,716.984002 638.076,716.552 C637.595998,716.119998 637.356,715.568003 637.356,714.896 C637.356,714.223997 637.595998,713.672002 638.076,713.24 C638.556002,712.807998 639.083997,712.592 639.66,712.592 C640.236003,712.592 640.763998,712.807998 641.244,713.24 C641.724002,713.672002 641.964,714.223997 641.964,714.896 L641.964,714.896 Z M653.34,746 L650.076,746 L650.076,709.712 L653.34,709.712 L653.34,746 Z M679.212,733.04 C679.116,730.927989 678.436006,729.176007 677.172,727.784 C675.907994,726.391993 674.108012,725.696 671.772,725.696 C670.683995,725.696 669.676005,725.895998 668.748,726.296 C667.819995,726.696002 667.004004,727.239997 666.3,727.928 C665.595996,728.616003 665.036002,729.399996 664.62,730.28 C664.203998,731.160004 663.964,732.079995 663.9,733.04 L679.212,733.04 Z M682.524,734.096 L682.524,734.816 C682.524,735.072001 682.508,735.343999 682.476,735.632 L663.852,735.632 C663.884,736.752006 664.107998,737.807995 664.524,738.8 C664.940002,739.792005 665.515996,740.655996 666.252,741.392 C666.988004,742.128004 667.851995,742.711998 668.844,743.144 C669.836005,743.576002 670.907994,743.792 672.06,743.792 C673.756008,743.792 675.219994,743.400004 676.452,742.616 C677.684006,741.831996 678.619997,740.928005 679.26,739.904 L681.708,741.824 C680.363993,743.520008 678.884008,744.735996 677.268,745.472 C675.651992,746.208004 673.916009,746.576 672.06,746.576 C670.395992,746.576 668.852007,746.280003 667.428,745.688 C666.003993,745.095997 664.780005,744.272005 663.756,743.216 C662.731995,742.159995 661.924003,740.912007 661.332,739.472 C660.739997,738.031993 660.444,736.464008 660.444,734.768 C660.444,733.071992 660.731997,731.504007 661.308,730.064 C661.884003,728.623993 662.683995,727.376005 663.708,726.32 C664.732005,725.263995 665.931993,724.440003 667.308,723.848 C668.684007,723.255997 670.171992,722.96 671.772,722.96 C673.532009,722.96 675.083993,723.255997 676.428,723.848 C677.772007,724.440003 678.891996,725.239995 679.788,726.248 C680.684004,727.256005 681.363998,728.431993 681.828,729.776 C682.292002,731.120007 682.524,732.559992 682.524,734.096 L682.524,734.096 Z M701.724,712.016 L713.004,712.016 C715.116011,712.016 717.235989,712.367996 719.364,713.072 C721.492011,713.776004 723.411991,714.839993 725.124,716.264 C726.836009,717.688007 728.219995,719.463989 729.276,721.592 C730.332005,723.720011 730.86,726.191986 730.86,729.008 C730.86,731.856014 730.332005,734.335989 729.276,736.448 C728.219995,738.560011 726.836009,740.327993 725.124,741.752 C723.411991,743.176007 721.492011,744.239996 719.364,744.944 C717.235989,745.648004 715.116011,746 713.004,746 L701.724,746 L701.724,712.016 Z M705.18,742.928 L712.044,742.928 C714.604013,742.928 716.83599,742.528004 718.74,741.728 C720.64401,740.927996 722.219994,739.880006 723.468,738.584 C724.716006,737.287994 725.651997,735.808008 726.276,734.144 C726.900003,732.479992 727.212,730.768009 727.212,729.008 C727.212,727.247991 726.900003,725.536008 726.276,723.872 C725.651997,722.207992 724.716006,720.728006 723.468,719.432 C722.219994,718.135994 720.64401,717.088004 718.74,716.288 C716.83599,715.487996 714.604013,715.088 712.044,715.088 L705.18,715.088 L705.18,742.928 Z M755.004,733.04 C754.908,730.927989 754.228006,729.176007 752.964,727.784 C751.699994,726.391993 749.900012,725.696 747.564,725.696 C746.475995,725.696 745.468005,725.895998 744.54,726.296 C743.611995,726.696002 742.796004,727.239997 742.092,727.928 C741.387996,728.616003 740.828002,729.399996 740.412,730.28 C739.995998,731.160004 739.756,732.079995 739.692,733.04 L755.004,733.04 Z M758.316,734.096 L758.316,734.816 C758.316,735.072001 758.3,735.343999 758.268,735.632 L739.644,735.632 C739.676,736.752006 739.899998,737.807995 740.316,738.8 C740.732002,739.792005 741.307996,740.655996 742.044,741.392 C742.780004,742.128004 743.643995,742.711998 744.636,743.144 C745.628005,743.576002 746.699994,743.792 747.852,743.792 C749.548008,743.792 751.011994,743.400004 752.244,742.616 C753.476006,741.831996 754.411997,740.928005 755.052,739.904 L757.5,741.824 C756.155993,743.520008 754.676008,744.735996 753.06,745.472 C751.443992,746.208004 749.708009,746.576 747.852,746.576 C746.187992,746.576 744.644007,746.280003 743.22,745.688 C741.795993,745.095997 740.572005,744.272005 739.548,743.216 C738.523995,742.159995 737.716003,740.912007 737.124,739.472 C736.531997,738.031993 736.236,736.464008 736.236,734.768 C736.236,733.071992 736.523997,731.504007 737.1,730.064 C737.676003,728.623993 738.475995,727.376005 739.5,726.32 C740.524005,725.263995 741.723993,724.440003 743.1,723.848 C744.476007,723.255997 745.963992,722.96 747.564,722.96 C749.324009,722.96 750.875993,723.255997 752.22,723.848 C753.564007,724.440003 754.683996,725.239995 755.58,726.248 C756.476004,727.256005 757.155998,728.431993 757.62,729.776 C758.084002,731.120007 758.316,732.559992 758.316,734.096 L758.316,734.096 Z M774.54,746 L770.94,746 L761.772,723.536 L765.42,723.536 L772.716,742.544 L772.812,742.544 L780.156,723.536 L783.66,723.536 L774.54,746 Z M805.884,733.04 C805.788,730.927989 805.108006,729.176007 803.844,727.784 C802.579994,726.391993 800.780012,725.696 798.444,725.696 C797.355995,725.696 796.348005,725.895998 795.42,726.296 C794.491995,726.696002 793.676004,727.239997 792.972,727.928 C792.267996,728.616003 791.708002,729.399996 791.292,730.28 C790.875998,731.160004 790.636,732.079995 790.572,733.04 L805.884,733.04 Z M809.196,734.096 L809.196,734.816 C809.196,735.072001 809.18,735.343999 809.148,735.632 L790.524,735.632 C790.556,736.752006 790.779998,737.807995 791.196,738.8 C791.612002,739.792005 792.187996,740.655996 792.924,741.392 C793.660004,742.128004 794.523995,742.711998 795.516,743.144 C796.508005,743.576002 797.579994,743.792 798.732,743.792 C800.428008,743.792 801.891994,743.400004 803.124,742.616 C804.356006,741.831996 805.291997,740.928005 805.932,739.904 L808.38,741.824 C807.035993,743.520008 805.556008,744.735996 803.94,745.472 C802.323992,746.208004 800.588009,746.576 798.732,746.576 C797.067992,746.576 795.524007,746.280003 794.1,745.688 C792.675993,745.095997 791.452005,744.272005 790.428,743.216 C789.403995,742.159995 788.596003,740.912007 788.004,739.472 C787.411997,738.031993 787.116,736.464008 787.116,734.768 C787.116,733.071992 787.403997,731.504007 787.98,730.064 C788.556003,728.623993 789.355995,727.376005 790.38,726.32 C791.404005,725.263995 792.603993,724.440003 793.98,723.848 C795.356007,723.255997 796.843992,722.96 798.444,722.96 C800.204009,722.96 801.755993,723.255997 803.1,723.848 C804.444007,724.440003 805.563996,725.239995 806.46,726.248 C807.356004,727.256005 808.035998,728.431993 808.5,729.776 C808.964002,731.120007 809.196,732.559992 809.196,734.096 L809.196,734.096 Z M819.564,746 L816.3,746 L816.3,709.712 L819.564,709.712 L819.564,746 Z M850.62,734.768 C850.62,736.464008 850.324003,738.031993 849.732,739.472 C849.139997,740.912007 848.316005,742.159995 847.26,743.216 C846.203995,744.272005 844.940007,745.095997 843.468,745.688 C841.995993,746.280003 840.380009,746.576 838.62,746.576 C836.891991,746.576 835.292007,746.280003 833.82,745.688 C832.347993,745.095997 831.084005,744.272005 830.028,743.216 C828.971995,742.159995 828.148003,740.912007 827.556,739.472 C826.963997,738.031993 826.668,736.464008 826.668,734.768 C826.668,733.071992 826.963997,731.504007 827.556,730.064 C828.148003,728.623993 828.971995,727.376005 830.028,726.32 C831.084005,725.263995 832.347993,724.440003 833.82,723.848 C835.292007,723.255997 836.891991,722.96 838.62,722.96 C840.380009,722.96 841.995993,723.255997 843.468,723.848 C844.940007,724.440003 846.203995,725.263995 847.26,726.32 C848.316005,727.376005 849.139997,728.623993 849.732,730.064 C850.324003,731.504007 850.62,733.071992 850.62,734.768 L850.62,734.768 Z M847.164,734.768 C847.164,733.519994 846.964002,732.344006 846.564,731.24 C846.163998,730.135994 845.596004,729.176004 844.86,728.36 C844.123996,727.543996 843.228005,726.896002 842.172,726.416 C841.115995,725.935998 839.932007,725.696 838.62,725.696 C837.307993,725.696 836.132005,725.935998 835.092,726.416 C834.051995,726.896002 833.164004,727.543996 832.428,728.36 C831.691996,729.176004 831.124002,730.135994 830.724,731.24 C830.323998,732.344006 830.124,733.519994 830.124,734.768 C830.124,736.016006 830.323998,737.191994 830.724,738.296 C831.124002,739.400006 831.691996,740.359996 832.428,741.176 C833.164004,741.992004 834.051995,742.631998 835.092,743.096 C836.132005,743.560002 837.307993,743.792 838.62,743.792 C839.932007,743.792 841.115995,743.560002 842.172,743.096 C843.228005,742.631998 844.123996,741.992004 844.86,741.176 C845.596004,740.359996 846.163998,739.400006 846.564,738.296 C846.964002,737.191994 847.164,736.016006 847.164,734.768 L847.164,734.768 Z M860.892,757.52 L857.628,757.52 L857.628,723.536 L860.892,723.536 L860.892,727.424 L861.036,727.424 C861.964005,725.951993 863.203992,724.840004 864.756,724.088 C866.308008,723.335996 867.883992,722.96 869.484,722.96 C871.244009,722.96 872.835993,723.263997 874.26,723.872 C875.684007,724.480003 876.899995,725.311995 877.908,726.368 C878.916005,727.424005 879.699997,728.671993 880.26,730.112 C880.820003,731.552007 881.1,733.103992 881.1,734.768 C881.1,736.432008 880.820003,737.983993 880.26,739.424 C879.699997,740.864007 878.916005,742.111995 877.908,743.168 C876.899995,744.224005 875.684007,745.055997 874.26,745.664 C872.835993,746.272003 871.244009,746.576 869.484,746.576 C867.883992,746.576 866.308008,746.200004 864.756,745.448 C863.203992,744.695996 861.964005,743.616007 861.036,742.208 L860.892,742.208 L860.892,757.52 Z M877.644,734.768 C877.644,733.519994 877.452002,732.344006 877.068,731.24 C876.683998,730.135994 876.132004,729.176004 875.412,728.36 C874.691996,727.543996 873.804005,726.896002 872.748,726.416 C871.691995,725.935998 870.492007,725.696 869.148,725.696 C867.899994,725.696 866.748005,725.927998 865.692,726.392 C864.635995,726.856002 863.724004,727.495996 862.956,728.312 C862.187996,729.128004 861.588002,730.087994 861.156,731.192 C860.723998,732.296006 860.508,733.487994 860.508,734.768 C860.508,736.048006 860.723998,737.239994 861.156,738.344 C861.588002,739.448006 862.187996,740.399996 862.956,741.2 C863.724004,742.000004 864.635995,742.631998 865.692,743.096 C866.748005,743.560002 867.899994,743.792 869.148,743.792 C870.492007,743.792 871.691995,743.560002 872.748,743.096 C873.804005,742.631998 874.691996,741.992004 875.412,741.176 C876.132004,740.359996 876.683998,739.400006 877.068,738.296 C877.452002,737.191994 877.644,736.016006 877.644,734.768 L877.644,734.768 Z M905.244,733.04 C905.148,730.927989 904.468006,729.176007 903.204,727.784 C901.939994,726.391993 900.140012,725.696 897.804,725.696 C896.715995,725.696 895.708005,725.895998 894.78,726.296 C893.851995,726.696002 893.036004,727.239997 892.332,727.928 C891.627996,728.616003 891.068002,729.399996 890.652,730.28 C890.235998,731.160004 889.996,732.079995 889.932,733.04 L905.244,733.04 Z M908.556,734.096 L908.556,734.816 C908.556,735.072001 908.54,735.343999 908.508,735.632 L889.884,735.632 C889.916,736.752006 890.139998,737.807995 890.556,738.8 C890.972002,739.792005 891.547996,740.655996 892.284,741.392 C893.020004,742.128004 893.883995,742.711998 894.876,743.144 C895.868005,743.576002 896.939994,743.792 898.092,743.792 C899.788008,743.792 901.251994,743.400004 902.484,742.616 C903.716006,741.831996 904.651997,740.928005 905.292,739.904 L907.74,741.824 C906.395993,743.520008 904.916008,744.735996 903.3,745.472 C901.683992,746.208004 899.948009,746.576 898.092,746.576 C896.427992,746.576 894.884007,746.280003 893.46,745.688 C892.035993,745.095997 890.812005,744.272005 889.788,743.216 C888.763995,742.159995 887.956003,740.912007 887.364,739.472 C886.771997,738.031993 886.476,736.464008 886.476,734.768 C886.476,733.071992 886.763997,731.504007 887.34,730.064 C887.916003,728.623993 888.715995,727.376005 889.74,726.32 C890.764005,725.263995 891.963993,724.440003 893.34,723.848 C894.716007,723.255997 896.203992,722.96 897.804,722.96 C899.564009,722.96 901.115993,723.255997 902.46,723.848 C903.804007,724.440003 904.923996,725.239995 905.82,726.248 C906.716004,727.256005 907.395998,728.431993 907.86,729.776 C908.324002,731.120007 908.556,732.559992 908.556,734.096 L908.556,734.096 Z M915.564,728.48 C915.564,727.871997 915.548,727.088005 915.516,726.128 C915.484,725.167995 915.436,724.304004 915.372,723.536 L918.492,723.536 C918.556,724.144003 918.604,724.815996 918.636,725.552 C918.668,726.288004 918.684,726.895998 918.684,727.376 L918.78,727.376 C919.420003,726.063993 920.379994,725.000004 921.66,724.184 C922.940006,723.367996 924.379992,722.96 925.98,722.96 C926.396002,722.96 926.771998,722.976 927.108,723.008 C927.444002,723.04 927.787998,723.104 928.14,723.2 L927.708,726.272 C927.515999,726.208 927.196002,726.144 926.748,726.08 C926.299998,726.016 925.852002,725.984 925.404,725.984 C924.539996,725.984 923.708004,726.143998 922.908,726.464 C922.107996,726.784002 921.412003,727.287997 920.82,727.976 C920.227997,728.664003 919.748002,729.543995 919.38,730.616 C919.011998,731.688005 918.828,732.975992 918.828,734.48 L918.828,746 L915.564,746 L915.564,728.48 Z" id="Carlos-Borges" fill="#000000"></path>
            <g id="carlos-borges-logo-copy" transform="translate(410.000000, 188.000000)" fill="#CCCCCC">
                <polygon id="2,0" points="195 220 251.291651 252.5 251.291651 317.5 195 350 138.708349 317.5 138.708349 252.5 "></polygon>
                <polygon id="2,1" points="325 220 381.291651 252.5 381.291651 317.5 325 350 268.708349 317.5 268.708349 252.5 "></polygon>
                <polygon id="1,0" points="130 110 186.291651 142.5 186.291651 207.5 130 240 73.7083488 207.5 73.7083488 142.5 "></polygon>
                <polygon id="0,1" points="195 0 251.291651 32.5 251.291651 97.5 195 130 138.708349 97.5 138.708349 32.5 "></polygon>
            </g>
        </g>
    </g>
</svg>